TITLE ""
FILE "DISC1Track18.mp3" MP3
  TRACK 01 AUDIO
    TITLE "DISC1Track18_01"
    INDEX 01 00:00:00
  TRACK 02 AUDIO
    TITLE "DISC1Track18_02"
    INDEX 01 00:03:18
  TRACK 03 AUDIO
    TITLE "DISC1Track18_03"
    INDEX 01 00:03:48
  TRACK 04 AUDIO
    TITLE "DISC1Track18_04"
    INDEX 01 00:06:50
  TRACK 05 AUDIO
    TITLE "DISC1Track18_05"
    INDEX 01 00:09:29
  TRACK 06 AUDIO
    TITLE "DISC1Track18_06"
    INDEX 01 00:11:69
  TRACK 07 AUDIO
    TITLE "DISC1Track18_07"
    INDEX 01 00:12:21
  TRACK 08 AUDIO
    TITLE "DISC1Track18_08"
    INDEX 01 00:15:69
  TRACK 09 AUDIO
    TITLE "DISC1Track18_09"
    INDEX 01 00:18:53
  TRACK 10 AUDIO
    TITLE "DISC1Track18_10"
    INDEX 01 00:21:26
  TRACK 11 AUDIO
    TITLE "DISC1Track18_11"
    INDEX 01 00:21:50
  TRACK 12 AUDIO
    TITLE "DISC1Track18_12"
    INDEX 01 00:23:74
  TRACK 13 AUDIO
    TITLE "DISC1Track18_13"
    INDEX 01 00:26:23
  TRACK 14 AUDIO
    TITLE "DISC1Track18_14"
    INDEX 01 00:28:32
  TRACK 15 AUDIO
    TITLE "DISC1Track18_15"
    INDEX 01 00:28:60
  TRACK 16 AUDIO
    TITLE "DISC1Track18_16"
    INDEX 01 00:30:11
  TRACK 17 AUDIO
    TITLE "DISC1Track18_17"
    INDEX 01 00:32:01
  TRACK 18 AUDIO
    TITLE "DISC1Track18_18"
    INDEX 01 00:33:63
  TRACK 19 AUDIO
    TITLE "DISC1Track18_19"
    INDEX 01 00:34:15
  TRACK 20 AUDIO
    TITLE "DISC1Track18_20"
    INDEX 01 00:36:49
  TRACK 21 AUDIO
    TITLE "DISC1Track18_21"
    INDEX 01 00:39:03
  TRACK 22 AUDIO
    TITLE "DISC1Track18_22"
    INDEX 01 00:41:15
  TRACK 23 AUDIO
    TITLE "DISC1Track18_23"
    INDEX 01 00:41:43
  TRACK 24 AUDIO
    TITLE "DISC1Track18_24"
    INDEX 01 00:43:51
  TRACK 25 AUDIO
    TITLE "DISC1Track18_25"
    INDEX 01 00:46:34
  TRACK 26 AUDIO
    TITLE "DISC1Track18_26"
    INDEX 01 00:49:01
  TRACK 27 AUDIO
    TITLE "DISC1Track18_27"
    INDEX 01 00:49:30
  TRACK 28 AUDIO
    TITLE "DISC1Track18_28"
    INDEX 01 00:52:11
  TRACK 29 AUDIO
    TITLE "DISC1Track18_29"
    INDEX 01 00:54:24
  TRACK 30 AUDIO
    TITLE "DISC1Track18_30"
    INDEX 01 00:56:25
  TRACK 31 AUDIO
    TITLE "DISC1Track18_31"
    INDEX 01 00:56:54
  TRACK 32 AUDIO
    TITLE "DISC1Track18_32"
    INDEX 01 00:59:35
  TRACK 33 AUDIO
    TITLE "DISC1Track18_33"
    INDEX 01 01:01:61
  TRACK 34 AUDIO
    TITLE "DISC1Track18_34"
    INDEX 01 01:04:02
  TRACK 35 AUDIO
    TITLE "DISC1Track18_35"
    INDEX 01 01:04:32
  TRACK 36 AUDIO
    TITLE "DISC1Track18_36"
    INDEX 01 01:06:58
  TRACK 37 AUDIO
    TITLE "DISC1Track18_37"
    INDEX 01 01:09:10
  TRACK 38 AUDIO
    TITLE "DISC1Track18_38"
    INDEX 01 01:11:10
  TRACK 39 AUDIO
    TITLE "DISC1Track18_39"
    INDEX 01 01:11:48
  TRACK 40 AUDIO
    TITLE "DISC1Track18_40"
    INDEX 01 01:15:34
  TRACK 41 AUDIO
    TITLE "DISC1Track18_41"
    INDEX 01 01:19:27
  TRACK 42 AUDIO
    TITLE "DISC1Track18_42"
    INDEX 01 01:23:16
  TRACK 43 AUDIO
    TITLE "DISC1Track18_43"
    INDEX 01 01:23:43
  TRACK 44 AUDIO
    TITLE "DISC1Track18_44"
    INDEX 01 01:26:18
  TRACK 45 AUDIO
    TITLE "DISC1Track18_45"
    INDEX 01 01:28:30
  TRACK 46 AUDIO
    TITLE "DISC1Track18_46"
    INDEX 01 01:30:33
  TRACK 47 AUDIO
    TITLE "DISC1Track18_47"
    INDEX 01 01:30:63
  TRACK 48 AUDIO
    TITLE "DISC1Track18_48"
    INDEX 01 01:33:55
  TRACK 49 AUDIO
    TITLE "DISC1Track18_49"
    INDEX 01 01:36:59
  TRACK 50 AUDIO
    TITLE "DISC1Track18_50"
    INDEX 01 01:39:44
